REM DIRINDEX 1\2\6,1\2\7,1\2\8,1\2\9,1\3\10,1\3\11,1\4\12,1\4\13,1\4\14,1\5\15,1\5\16,1\5\17
REM DIRNAME folder01,folder02,folder03,folder04,folder05,folder06,folder07,folder08,folder09,folder10,folder11,folder12,folder13,folder14,folder15,folder16,folder17
TITLE ""
FILE "1400_2_sec02_0133_0149.mp3" MP3
  TRACK 01 AUDIO
    TITLE "0:"
    INDEX 01 00:00:00
  TRACK 02 AUDIO
    TITLE "13:cjc029_1834"
    INDEX 01 00:00:17
  TRACK 03 AUDIO
    TITLE "0:"
    INDEX 01 00:01:19
  TRACK 04 AUDIO
    TITLE "14:cjc029_1835"
    INDEX 01 00:01:24
  TRACK 05 AUDIO
    TITLE "0:"
    INDEX 01 00:05:38
  TRACK 06 AUDIO
    TITLE "13:cjc029_1836"
    INDEX 01 00:06:20
  TRACK 07 AUDIO
    TITLE "0:"
    INDEX 01 00:07:41
  TRACK 08 AUDIO
    TITLE "14:cjc029_1837"
    INDEX 01 00:07:45
  TRACK 09 AUDIO
    TITLE "0:"
    INDEX 01 00:10:10
  TRACK 10 AUDIO
    TITLE "13:cjc029_1838"
    INDEX 01 00:10:66
  TRACK 11 AUDIO
    TITLE "0:"
    INDEX 01 00:11:72
  TRACK 12 AUDIO
    TITLE "14:cjc029_1839"
    INDEX 01 00:12:03
  TRACK 13 AUDIO
    TITLE "0:"
    INDEX 01 00:13:04
  TRACK 14 AUDIO
    TITLE "13:cjc029_1840"
    INDEX 01 00:13:61
  TRACK 15 AUDIO
    TITLE "0:"
    INDEX 01 00:15:05
  TRACK 16 AUDIO
    TITLE "14:cjc029_1841"
    INDEX 01 00:15:11
  TRACK 17 AUDIO
    TITLE "0:"
    INDEX 01 00:16:48
  TRACK 18 AUDIO
    TITLE "13:cjc029_1842"
    INDEX 01 00:17:29
  TRACK 19 AUDIO
    TITLE "0:"
    INDEX 01 00:18:48
  TRACK 20 AUDIO
    TITLE "14:cjc029_1843"
    INDEX 01 00:18:54
  TRACK 21 AUDIO
    TITLE "0:"
    INDEX 01 00:21:66
  TRACK 22 AUDIO
    TITLE "13:cjc029_1844"
    INDEX 01 00:22:46
  TRACK 23 AUDIO
    TITLE "0:"
    INDEX 01 00:23:63
  TRACK 24 AUDIO
    TITLE "14:cjc029_1845"
    INDEX 01 00:23:67
  TRACK 25 AUDIO
    TITLE "0:"
    INDEX 01 00:27:53
  TRACK 26 AUDIO
    TITLE "13:cjc029_1846"
    INDEX 01 00:28:35
  TRACK 27 AUDIO
    TITLE "0:"
    INDEX 01 00:29:58
  TRACK 28 AUDIO
    TITLE "14:cjc029_1847"
    INDEX 01 00:29:62
  TRACK 29 AUDIO
    TITLE "0:"
    INDEX 01 00:31:14
  TRACK 30 AUDIO
    TITLE "13:cjc029_1848"
    INDEX 01 00:31:73
  TRACK 31 AUDIO
    TITLE "0:"
    INDEX 01 00:33:13
  TRACK 32 AUDIO
    TITLE "14:cjc029_1849"
    INDEX 01 00:33:19
  TRACK 33 AUDIO
    TITLE "0:"
    INDEX 01 00:36:15
  TRACK 34 AUDIO
    TITLE "13:cjc029_1850"
    INDEX 01 00:37:05
  TRACK 35 AUDIO
    TITLE "0:"
    INDEX 01 00:38:04
  TRACK 36 AUDIO
    TITLE "14:cjc029_1851"
    INDEX 01 00:38:08
  TRACK 37 AUDIO
    TITLE "0:"
    INDEX 01 00:43:11
  TRACK 38 AUDIO
    TITLE "13:cjc029_1852"
    INDEX 01 00:43:70
  TRACK 39 AUDIO
    TITLE "0:"
    INDEX 01 00:45:02
  TRACK 40 AUDIO
    TITLE "14:cjc029_1853"
    INDEX 01 00:45:08
  TRACK 41 AUDIO
    TITLE "0:"
    INDEX 01 00:47:34
  TRACK 42 AUDIO
    TITLE "13:cjc029_1854"
    INDEX 01 00:48:16
  TRACK 43 AUDIO
    TITLE "0:"
    INDEX 01 00:49:33
  TRACK 44 AUDIO
    TITLE "14:cjc029_1855"
    INDEX 01 00:49:35
  TRACK 45 AUDIO
    TITLE "0:"
    INDEX 01 00:50:35
  TRACK 46 AUDIO
    TITLE "12:cjc029_1856"
    INDEX 01 00:52:12
  TRACK 47 AUDIO
    TITLE "0:"
    INDEX 01 00:53:41
  TRACK 48 AUDIO
    TITLE "13:cjc029_1857"
    INDEX 01 00:54:44
  TRACK 49 AUDIO
    TITLE "0:"
    INDEX 01 00:55:51
  TRACK 50 AUDIO
    TITLE "14:cjc029_1858"
    INDEX 01 00:55:55
  TRACK 51 AUDIO
    TITLE "0:"
    INDEX 01 00:59:08
  TRACK 52 AUDIO
    TITLE "13:cjc029_1859"
    INDEX 01 00:59:63
  TRACK 53 AUDIO
    TITLE "0:"
    INDEX 01 01:01:05
  TRACK 54 AUDIO
    TITLE "14:cjc029_1860"
    INDEX 01 01:01:11
  TRACK 55 AUDIO
    TITLE "0:"
    INDEX 01 01:03:43
  TRACK 56 AUDIO
    TITLE "13:cjc029_1861"
    INDEX 01 01:04:25
  TRACK 57 AUDIO
    TITLE "0:"
    INDEX 01 01:05:44
  TRACK 58 AUDIO
    TITLE "14:cjc029_1862"
    INDEX 01 01:05:48
  TRACK 59 AUDIO
    TITLE "0:"
    INDEX 01 01:08:01
  TRACK 60 AUDIO
    TITLE "13:cjc029_1863"
    INDEX 01 01:08:58
  TRACK 61 AUDIO
    TITLE "0:"
    INDEX 01 01:10:04
  TRACK 62 AUDIO
    TITLE "14:cjc029_1864"
    INDEX 01 01:10:08
  TRACK 63 AUDIO
    TITLE "0:"
    INDEX 01 01:13:57
  TRACK 64 AUDIO
    TITLE "13:cjc029_1865"
    INDEX 01 01:14:39
  TRACK 65 AUDIO
    TITLE "0:"
    INDEX 01 01:15:66
  TRACK 66 AUDIO
    TITLE "14:cjc029_1866"
    INDEX 01 01:15:74
  TRACK 67 AUDIO
    TITLE "0:"
    INDEX 01 01:20:00
  TRACK 68 AUDIO
    TITLE "13:cjc029_1867"
    INDEX 01 01:20:55
  TRACK 69 AUDIO
    TITLE "0:"
    INDEX 01 01:21:69
  TRACK 70 AUDIO
    TITLE "14:cjc029_1868"
    INDEX 01 01:21:74
  TRACK 71 AUDIO
    TITLE "0:"
    INDEX 01 01:26:15
